<?xml version="1.0" standalone="no"?>
<!DOCTYPE svg PUBLIC "-//W3C//DTD SVG 20010904//EN"
 "http://www.w3.org/TR/2001/REC-SVG-20010904/DTD/svg10.dtd">
<svg version="1.0" xmlns="http://www.w3.org/2000/svg"
 width="160.000000pt" height="128.000000pt" viewBox="0 0 160.000000 128.000000"
 preserveAspectRatio="xMidYMid meet">

<g transform="translate(0.000000,128.000000) scale(0.100000,-0.100000)"
fill="#FFFFFF" stroke="none">
<path d="M875 1089 c-10 -16 -15 -518 -7 -714 l7 -160 25 0 c22 0 26 5 30 40
l5 40 65 3 c85 3 106 8 130 32 19 19 20 35 20 324 0 371 8 349 -129 354 l-90
4 -3 41 c-2 34 -7 43 -25 45 -11 2 -24 -2 -28 -9z m206 -426 c0 -150 0 -278
-1 -283 0 -7 -27 -10 -72 -8 l-73 3 -2 270 c-2 149 -1 276 2 283 3 9 25 12 76
10 l71 -3 -1 -272z"/>
<path d="M331 999 c-50 -20 -50 -24 -51 -345 0 -282 1 -303 19 -325 19 -24 22
-24 240 -27 236 -3 265 1 259 41 -3 22 -5 22 -225 25 l-223 2 0 285 0 285 223
2 222 3 3 24 c2 13 -2 28 -10 32 -18 12 -427 10 -457 -2z"/>
<path d="M542 788 c-21 -21 -13 -43 33 -88 l45 -44 -46 -47 c-47 -48 -53 -73
-22 -93 15 -9 28 -1 79 49 91 90 91 85 13 165 -69 72 -81 79 -102 58z"/>
</g>
</svg>
