<?xml version="1.0" standalone="no"?>
<!DOCTYPE svg PUBLIC "-//W3C//DTD SVG 20010904//EN"
 "http://www.w3.org/TR/2001/REC-SVG-20010904/DTD/svg10.dtd">
<svg version="1.0" xmlns="http://www.w3.org/2000/svg"
 width="124.000000pt" height="126.000000pt" viewBox="0 0 124.000000 126.000000"
 preserveAspectRatio="xMidYMid meet">

<g transform="translate(0.000000,126.000000) scale(0.100000,-0.100000)"
fill="#000000" stroke="none">
<path d="M383 983 c-7 -2 -30 -35 -50 -71 -35 -62 -38 -74 -43 -167 l-5 -100
-40 -5 -40 -5 -3 -186 c-2 -179 -2 -187 20 -220 46 -67 55 -69 416 -69 360 0
373 2 412 65 19 31 20 47 18 222 l-3 188 -37 3 -38 3 0 115 c0 126 -10 163
-55 204 -23 22 -37 25 -113 28 -73 2 -92 0 -119 -17 -59 -37 -68 -62 -69 -191
-1 -63 -2 -121 -3 -128 -1 -9 -13 -12 -38 -10 l-38 3 -5 95 c-4 79 -10 104
-34 150 -47 91 -81 115 -133 93z m78 -136 c16 -30 19 -54 17 -120 l-3 -82 -54
-3 c-37 -2 -57 1 -62 10 -5 7 -9 42 -9 78 0 53 6 77 31 129 35 72 37 72 80
-12z m433 57 c23 -23 27 -48 24 -159 l-3 -100 -105 0 -105 0 0 50 0 50 50 5
c38 4 51 9 53 23 6 30 -17 47 -64 47 -40 0 -44 2 -44 24 0 13 9 35 21 50 19
24 27 26 89 26 49 0 73 -4 84 -16z m109 -334 c4 0 7 -65 7 -144 0 -130 -2
-146 -21 -170 l-20 -26 -328 0 c-279 0 -330 2 -349 16 -21 15 -22 21 -22 169
l0 154 123 3 c90 2 497 1 610 -2z"/>
</g>
</svg>
