<?xml version="1.0" standalone="no"?>
<!DOCTYPE svg PUBLIC "-//W3C//DTD SVG 20010904//EN"
 "http://www.w3.org/TR/2001/REC-SVG-20010904/DTD/svg10.dtd">
<svg version="1.0" xmlns="http://www.w3.org/2000/svg"
 width="158.000000pt" height="142.000000pt" viewBox="0 0 158.000000 142.000000"
 preserveAspectRatio="xMidYMid meet">

<g transform="translate(0.000000,142.000000) scale(0.100000,-0.100000)"
fill="#000000" stroke="none">
<path d="M388 1017 c-14 -7 -36 -21 -47 -31 -20 -19 -21 -28 -21 -311 0 -374
-16 -345 188 -345 174 0 212 -9 249 -55 34 -43 55 -44 85 -4 38 47 84 58 249
59 129 0 150 2 170 19 l24 19 0 307 0 307 -28 24 c-27 23 -33 24 -190 24 -137
0 -168 -3 -203 -19 -23 -10 -45 -24 -48 -30 -5 -7 -21 -1 -48 17 -40 26 -46
27 -197 29 -105 1 -165 -2 -183 -10z m327 -69 c51 -23 55 -45 55 -319 l0 -251
-27 7 c-16 4 -101 9 -190 12 l-163 5 0 272 c0 150 3 276 7 279 12 12 290 8
318 -5z m497 0 c2 -7 4 -132 3 -278 l0 -265 -160 -6 c-88 -4 -172 -10 -187
-14 l-28 -7 0 258 c1 337 -9 323 221 324 109 0 148 -3 151 -12z"/>
</g>
</svg>
