<?xml version="1.0" standalone="no"?>
<!DOCTYPE svg PUBLIC "-//W3C//DTD SVG 20010904//EN"
 "http://www.w3.org/TR/2001/REC-SVG-20010904/DTD/svg10.dtd">
<svg version="1.0" xmlns="http://www.w3.org/2000/svg"
 width="129.000000pt" height="123.000000pt" viewBox="0 0 129.000000 123.000000"
 preserveAspectRatio="xMidYMid meet">

<g transform="translate(0.000000,123.000000) scale(0.100000,-0.100000)"
fill="#000000" stroke="none">
<path d="M414 951 c-35 -21 -64 -75 -64 -119 0 -27 -3 -30 -45 -35 -61 -9
-102 -31 -120 -67 -21 -41 -22 -358 -1 -399 20 -38 41 -53 84 -60 36 -6 37 -7
40 -54 5 -75 21 -76 145 -6 l105 59 119 0 c130 0 151 7 178 60 8 16 15 47 15
70 l0 40 43 0 c54 0 104 30 123 75 22 54 20 338 -4 385 -32 65 -55 70 -337 70
-227 0 -253 -2 -281 -19z m546 -71 c18 -18 20 -33 20 -175 0 -142 -2 -157 -20
-175 -12 -12 -33 -20 -55 -20 l-35 0 0 95 c0 106 -11 140 -57 171 -24 16 -52
19 -210 22 l-183 4 0 27 c0 15 9 37 20 49 20 21 27 22 260 22 227 0 241 -1
260 -20z m-170 -179 c6 -11 10 -89 10 -180 0 -199 7 -191 -161 -191 -115 0
-118 -1 -179 -35 -34 -19 -66 -35 -70 -35 -5 0 -10 15 -12 33 -3 31 -5 32 -56
38 -83 11 -82 9 -82 191 0 91 4 168 10 179 10 18 24 19 270 19 246 0 260 -1
270 -19z"/>
</g>
</svg>
